/* XPM */
static char *ccc9027cb186471ea5d2b92b597ddb39[] = {
/* columns rows colors chars-per-pixel */
"64 64 2 1 ",
"  c #222222",
". c None",
/* pixels */
"................................................................",
"...............................   ..............................",
"..............................      ............................",
"............................          ..........................",
"..........................              ........................",
"........................                 .......................",
".......................                    .....................",
".....................                        ...................",
"...................                            .................",
".................                               ................",
"................                                  ..............",
"..............                                      ............",
"............                                         ...........",
"...........                                            .........",
".........                  .         ..                  .......",
".......                  ...         ....                  .....",
"......                 .....         .....                 .....",
"......                ......         .......                ....",
"......              ........         .........              ....",
"......            ........           ...........            ....",
"......          ........             ............           ....",
"......         ........              .  ...........         ....",
"......         .........             .    .........         ....",
"......         ...........           .      .......         ....",
"......         ............          .       ......         ....",
"......         .............         .         .....        ....",
"......          ............         .           .....      ....",
"......            ..........         .             .....    ....",
"......             .........         .              .....   ....",
"......               .......         .                ..... ....",
"......                 .....         .                  ........",
".......                  ...         ..                   ......",
"........                  ...        ....                  .....",
"..........                  ...      ......                 ....",
"...... .....                  ..     ........               ....",
"......  ......                  ..   .........              ....",
"......    .....                  ... ...........            ....",
"......      .....                  ...............          ....",
"......        .....                  ..............         ....",
"......         .....                   ............         ....",
"......         .......                  ...........         ....",
"......         .........                  .........         ....",
"......         ...........                 ........         ....",
"......           ..........               .......           ....",
"......            ..........            .......             ....",
"......              ........          ........              ....",
"......                ......         .......                ....",
"......                 .....         .....                 .....",
".......                  ...         ....                 ......",
".........                  .         ..                  .......",
"...........                                            .........",
"............                                         ...........",
"..............                                      ............",
"................                                  ..............",
"..................                              ................",
"...................                           ..................",
".....................                        ...................",
".......................                    .....................",
"........................                 .......................",
"..........................              ........................",
"............................          ..........................",
"..............................      ............................",
"................................  ..............................",
"................................................................"
};
