/* XPM */
static char *f641f27c23c44736efba0f2c059d9f46[] = {
/* columns rows colors chars-per-pixel */
"16 16 2 1 ",
"  c #222222",
". c None",
/* pixels */
"........  ......",
"......     .....",
"....         ...",
"...            .",
"..    .   .     ",
"..  ..     ..   ",
"..   ..         ",
"..    .        .",
"..        .     ",
"..        ...   ",
"..   .     ..   ",
"..    .   .     ",
"...            .",
"....         ...",
"......     .....",
"........  ......"
};
