/* XPM */
static char *_2e10e14bf1d46b78ba09ae69d4558af[] = {
/* columns rows colors chars-per-pixel */
"128 128 2 1 ",
"  c #222222",
". c None",
/* pixels */
"................................................................................................................................",
"................................................................................................................................",
"................................................................................................................................",
".............................................................       ............................................................",
"...........................................................           ..........................................................",
"..........................................................              ........................................................",
"........................................................                  ......................................................",
"......................................................                     .....................................................",
"....................................................                         ...................................................",
"...................................................                            .................................................",
".................................................                               ................................................",
"...............................................                                   ..............................................",
"..............................................                                      ............................................",
"............................................                                          ..........................................",
"..........................................                                             .........................................",
"........................................                                                 .......................................",
".......................................                                                    .....................................",
".....................................                                                        ...................................",
"...................................                                                           ..................................",
".................................                                                               ................................",
"................................                                                                  ..............................",
"..............................                                                                     .............................",
"............................                                                                         ...........................",
"...........................                                                                            .........................",
".........................                                                                                .......................",
".......................                                                                                   ......................",
".....................                                                                                       ....................",
"....................                                   .                 ..                                   ..................",
"..................                                   ...                 ...                                    ................",
"................                                   .....                 .....                                   ...............",
"..............                                    ......                 .......                                   .............",
".............                                   ........                 .........                                  ............",
"............                                  ..........                 ..........                                  ...........",
"...........                                 ............                 ............                                 ..........",
"...........                                .............                 ..............                               ..........",
"...........                              ...............                 ...............                               .........",
"...........                            .................                 .................                             .........",
"...........                           ................                   ...................                           .........",
"...........                         ................                     .....................                         .........",
"...........                       .................                      ......................                        .........",
"...........                     .................                        ........................                      .........",
"...........                    ................                          ..........................                    .........",
"...........                  ................                            ...  ......................                   .........",
"...........                  ................                            ...    .....................                  .........",
"...........                 ..................                           ...      ...................                  .........",
"...........                 ....................                         ...       ..................                  .........",
"...........                 ......................                       ...         ................                  .........",
"...........                 .......................                      ...           ..............                  .........",
"...........                 .........................                    ...            .............                  .........",
"...........                 ...........................                  ...              ............                 .........",
"...........                 ............................                 ...                ...........                .........",
"...........                  ...........................                 ...                  ...........              .........",
"...........                   ..........................                 ...                   ............            .........",
"...........                    .........................                 ...                     ...........           .........",
"...........                      .......................                 ...                       ...........         .........",
"...........                        .....................                 ...                         ...........       .........",
"...........                          ...................                 ...                          ...........      .........",
"...........                           ..................                 ...                            ...........    .........",
"...........                             ................                 ...                              ...........  .........",
"...........                               ..............                 ...                                ....................",
"...........                                 ............                 ...                                 ...................",
"............                                 ...........                 ...                                   .................",
".............                                  .........                 ....                                    ...............",
"..............                                   .......                 ......                                   ..............",
"...............                                    .....                 ........                                   ............",
".................                                   ......               ..........                                  ...........",
"...................                                   ......             ...........                                  ..........",
"....................                                    ......           .............                                ..........",
"......................                                   ......          ...............                               .........",
"...........  ...........                                   ......        .................                             .........",
"...........    ...........                                   ......      ..................                            .........",
"...........     ...........                                    .....     ....................                          .........",
"...........       ...........                                   ......   ......................                        .........",
"...........         ...........                                   ...... .......................                       .........",
"...........          ............                                   ..............................                     .........",
"...........            ...........                                    ..............................                   .........",
"...........              ...........                                   ..............................                  .........",
"...........                ...........                                   ............................                  .........",
"...........                 ...........                                    ..........................                  .........",
"...........                 .............                                   .........................                  .........",
"...........                 ...............                                   .......................                  .........",
"...........                 .................                                   .....................                  .........",
"...........                 ..................                                    ...................                  .........",
"...........                 ....................                                   ..................                  .........",
"...........                  .....................                                   ................                  .........",
"...........                  .......................                                ................                   .........",
"...........                    ......................                              ................                    .........",
"...........                      ......................                          ................                      .........",
"...........                       ......................                       ................                        .........",
"...........                         ....................                     ................                          .........",
"...........                           ..................                    ................                           .........",
"...........                             ................                  ................                             .........",
"...........                              ...............                 ...............                               .........",
"...........                                .............                 .............                                ..........",
"...........                                  ...........                 ............                                 ..........",
"............                                  ..........                 ..........                                  ...........",
".............                                   ........                 ........                                   ............",
"...............                                   ......                 .......                                   .............",
"................                                    ....                 .....                                   ...............",
"..................                                   ...                 ...                                   .................",
"....................                                   .                 .                                    ..................",
"......................                                                                                      ....................",
".......................                                                                                   ......................",
".........................                                                                               ........................",
"...........................                                                                            .........................",
"............................                                                                         ...........................",
"..............................                                                                     .............................",
"................................                                                                  ..............................",
"..................................                                                              ................................",
"...................................                                                           ..................................",
".....................................                                                       ....................................",
".......................................                                                    .....................................",
".........................................                                                .......................................",
"..........................................                                             .........................................",
"............................................                                         ...........................................",
"..............................................                                      ............................................",
"................................................                                  ..............................................",
".................................................                               ................................................",
"...................................................                           ..................................................",
".....................................................                        ...................................................",
"......................................................                     .....................................................",
"........................................................                 .......................................................",
"..........................................................              ........................................................",
"............................................................          ..........................................................",
".............................................................       ............................................................",
"................................................................................................................................",
"................................................................................................................................",
"................................................................................................................................"
};
