/* XPM */
static char *_324fe352e0b4b18ad0e761eff5fabce[] = {
/* columns rows colors chars-per-pixel */
"32 32 2 1 ",
"  c #222222",
". c None",
/* pixels */
"................ ...............",
"..............     .............",
"............        ............",
"...........           ..........",
".........               ........",
".......                   ......",
".....                      .....",
"....         .     .         ...",
"...        ...     ..         ..",
"...       ...      ....       ..",
"...     ....       ......     ..",
"...     ....          ...     ..",
"...     ......         ...    ..",
"...      .....           ..   ..",
"...       ....             .. ..",
"...         ..               ...",
"....          .    ..         ..",
"... ..             ....       ..",
"...   ..         .......      ..",
"...    ...         ......     ..",
"...     ...          ....     ..",
"...     .....        ....     ..",
"...       ....      ...       ..",
"...         ..     ..         ..",
"....         .     .         ...",
"......                     .....",
".......                   ......",
".........               ........",
"...........           ..........",
"............        ............",
"..............     .............",
"................................"
};
