<svg id="Layer_1" data-name="Layer 1" xmlns="http://www.w3.org/2000/svg" viewBox="0 0 1024 1024"><defs><style>.cls-1{fill:#222;}</style></defs><title>Slice-Artboard 1 copy 4</title><path class="cls-1" d="M943.16,474.13V294.94a56.2,56.2,0,0,0-28.11-48.68L691,116.87,577.11,51.15,540,29.7a56.18,56.18,0,0,0-56.22,0l-39,22.5L338.21,113.72,218.25,183,108.66,246.26a56.19,56.19,0,0,0-28.11,48.68V461.25a56.2,56.2,0,0,0,28.11,48.68l109.59,63.28,120,69.26,106.56,61.32v108l-51.12-29.51L237.39,692.06a38.28,38.28,0,0,1-19.14-33.14V628.53L80.55,548.84V728.06a56.2,56.2,0,0,0,28.11,48.68L338.21,909.28,444.77,970.8l39,22.5a56.18,56.18,0,0,0,56.22,0l37.15-21.45L691,906.13,805.47,840l109.58-63.27a56.2,56.2,0,0,0,28.11-48.68V560.74a56.21,56.21,0,0,0-28.09-47.67L805.45,449.79,685.51,380.54l-81.72-47V492.36l26.28,15.18,156.27,90.22a38.26,38.26,0,0,1,19.11,32.63v28.53a38.27,38.27,0,0,1-14.88,30.29,38.88,38.88,0,0,1-4.25,2.85L633.77,780.13l-56.66,32.71V734.51L675,678l-97.93-56.56L444.77,545l-51.12-29.53L237.39,425.24a38.25,38.25,0,0,1-19.14-33.13h0v-28a38.27,38.27,0,0,1,14.9-30.3,38.67,38.67,0,0,1,4.24-2.84l156.26-90.22,51.12-29.51v80l-94.7,54.68,94.7,54.69V514.18L577.11,590.6V210.16l56.66,32.71,152.55,88.07a38.27,38.27,0,0,1,19.13,33.14v30.37Z"/></svg>