<svg id="Layer_1" data-name="Layer 1" xmlns="http://www.w3.org/2000/svg" viewBox="0 0 1024 1024"><defs><style>.cls-1{fill:#fff;}</style></defs><title>Slice-Artboard 1 copy 5</title><path class="cls-1" d="M916,476.49V308.59A52.69,52.69,0,0,0,889.65,263l-210-121.23L573,80.15,538.19,60.06a52.66,52.66,0,0,0-52.67,0L449,81.14l-99.85,57.65-112.4,64.89L134.06,263a52.69,52.69,0,0,0-26.34,45.61V464.41A52.68,52.68,0,0,0,134.06,510l102.69,59.29,112.4,64.89L449,691.67v101.2l-47.9-27.66L254.68,680.68a35.87,35.87,0,0,1-17.93-31V621.16l-129-74.68V714.41A52.68,52.68,0,0,0,134.06,760L349.15,884.21,449,941.86l36.52,21.08a52.66,52.66,0,0,0,52.67,0L573,942.85l106.67-61.59,107.3-62L889.65,760A52.69,52.69,0,0,0,916,714.41V557.64A52.68,52.68,0,0,0,889.66,513L787,453.68,674.57,388.79,598,344.72V493.57l24.62,14.22L769,592.32A35.83,35.83,0,0,1,787,622.9v26.73A35.85,35.85,0,0,1,773,678a37.33,37.33,0,0,1-4,2.67L626.09,763.2,573,793.86v-73.4l91.76-53-91.76-53L449,542.88l-47.9-27.67L254.68,430.68a35.89,35.89,0,0,1-17.93-31.05h0V373.37a35.84,35.84,0,0,1,14-28.39,34.65,34.65,0,0,1,4-2.66L401.1,257.79,449,230.13v74.92l-88.73,51.23L449,407.52V514l124,71.61V229.14l53.09,30.66L769,342.32A35.85,35.85,0,0,1,787,373.37v28.46Z"/></svg>