<svg id="Layer_1" data-name="Layer 1" xmlns="http://www.w3.org/2000/svg" viewBox="0 0 1024 1024"><defs><style>.cls-1{fill:#222;}</style></defs><title>Slice-Artboard 1 copy 6</title><path class="cls-1" d="M512,22.17C241.75,22.17,22.67,241.25,22.67,511.5S241.75,1000.83,512,1000.83s489.33-219.08,489.33-489.33S782.25,22.17,512,22.17ZM754.46,352,619.7,274.2l-50.05-28.9V581.38L452.74,513.86V413.47l-83.65-48.31,83.65-48.3V246.23L407.58,272.3l-138,79.7a34.37,34.37,0,0,0-3.74,2.51,33.79,33.79,0,0,0-13.16,26.77V406h0a33.78,33.78,0,0,0,16.9,29.27l138,79.7,45.16,26.08,116.91,67.51,86.51,50-86.51,50v69.2l50.05-28.9L754.46,671a33.88,33.88,0,0,0,16.9-29.28v-25.2a33.79,33.79,0,0,0-16.89-28.82l-138-79.7-23.21-13.41V354.27l72.19,41.54,106,61.17,96.83,55.91A49.65,49.65,0,0,1,893,555V702.8a49.66,49.66,0,0,1-24.83,43l-96.8,55.89L670.21,860.1,569.65,918.16l-32.82,19a49.66,49.66,0,0,1-49.66,0l-34.43-19.88-94.13-54.34L155.83,745.81a49.66,49.66,0,0,1-24.83-43V544.48l121.64,70.4v26.84A33.81,33.81,0,0,0,269.54,671l138,79.7,45.16,26.07v-95.4l-94.13-54.18L252.64,566l-96.81-55.9a49.64,49.64,0,0,1-24.83-43V320.19a49.64,49.64,0,0,1,24.83-43l96.81-55.9,106-61.18,94.13-54.34,34.43-19.88a49.66,49.66,0,0,1,49.66,0l32.82,19L670.21,162.9l198,114.29a49.66,49.66,0,0,1,24.83,43V478.49L771.36,408.1V381.28A33.83,33.83,0,0,0,754.46,352Z"/></svg>