<svg id="Layer_1" data-name="Layer 1" xmlns="http://www.w3.org/2000/svg" viewBox="0 0 2287 1024"><defs><style>.cls-1{fill:#fff;}</style></defs><title>Slice-Artboard 1 copy 3</title><path class="cls-1" d="M1337.24,512.47Q1318.1,498.4,1287,481.88a11.11,11.11,0,0,1-1.31-.75,14.87,14.87,0,0,0-1.31-.75q-4.51-2.25-8.82-4.5t-8.45-4.13q-21.76-10.87-34-18.58a71.32,71.32,0,0,1-20.26-18.95q-8.08-11.25-8.07-26.64v-36.4q0-18.76,11.07-29.46t31.33-10.7q19.14,0,29.84,11.82t10.69,32.84v31.15l92.7-1.13V374.93q0-42.4-15.76-72.62a106.28,106.28,0,0,0-45.79-46q-30-15.76-71.68-15.76-42.78,0-73.17,15.76a107.32,107.32,0,0,0-46.35,45.6q-16,29.83-16,71.49v28.14q0,40.17,14.26,67.55t35.65,44.1q21.39,16.69,51.79,32.08l4.88,2.26c1,.5,1.93,1,2.81,1.5s1.81,1,2.82,1.5q22.88,11.25,36.21,19.32A77.71,77.71,0,0,1,1281.89,589q8.44,11.09,8.44,26.09v47.66q0,20.26-11.07,31.89t-31.34,11.64q-20.64,0-32.27-11.82T1204,662V632.74l-92.7.75v29.28q0,42.4,16.33,72.61a109.61,109.61,0,0,0,47.1,46.16q30.76,15.94,73.55,16,42.4,0,72.8-16a107.93,107.93,0,0,0,46.35-46.16q15.94-30.2,16-72.61V617.36q0-39.78-13.51-65.3T1337.24,512.47Z"/><path class="cls-1" d="M1504.59,693.35q-6.57-6.95-6.57-19.7V246.21H1405V688.66q0,49.17,25.15,76.18t70.17,27h34.15V700.29h-11.63Q1511.15,700.29,1504.59,693.35Z"/><rect class="cls-1" x="1574.95" y="402.32" width="93.07" height="389.54"/><rect class="cls-1" x="1574.95" y="246.21" width="93.07" height="92.32"/><path class="cls-1" d="M1846.05,680.4q0,16.14-7.69,25T1816,714.18q-14.27,0-22.14-8.26T1786,682.66V516q0-17.25,7.88-27.21t22.14-9.94q14.64,0,22.52,10.13t7.88,28.52v25.52H1938V509.28q0-36-14.45-61.55t-42.22-38.84q-27.78-13.32-66.43-13.32t-66,13.32q-27.4,13.32-41.85,38.65t-14.45,61V690.16q0,33.78,14.45,58t41.85,36.78q27.39,12.57,66,12.57,39,0,66.8-13t42.41-37.34q14.64-24.39,14.64-58.54V657.89l-92.7-1.13Z"/><path class="cls-1" d="M2116.77,673.27v13.51q0,13.14-7.88,20.27t-22.52,7.13q-15.76,0-24.2-8.63t-8.45-24.77v-51h151.61V519.41q0-39.4-14.45-67.17A97.61,97.61,0,0,0,2149.23,410q-27.21-14.44-65.86-14.45-37.9,0-64.74,14.82t-41.09,43.35q-14.26,28.51-14.26,68.67V677.78q0,37.9,14.64,64.73a97.32,97.32,0,0,0,42.21,40.91q27.58,14.07,66.24,14.07,57,0,88.57-29.46t31.52-83.12V674Zm-55.36-184.45q7.7-10.31,22-10.32,15,0,23.45,9.76t8.45,27v46.54h-61.55V517.91Q2053.72,499.15,2061.41,488.82Z"/><path class="cls-1" d="M875,476.49V308.59A52.69,52.69,0,0,0,848.65,263l-210-121.23L532,80.15,497.19,60.06a52.66,52.66,0,0,0-52.67,0L408,81.14l-99.85,57.65-112.4,64.89L93.06,263a52.69,52.69,0,0,0-26.34,45.61V464.41A52.68,52.68,0,0,0,93.06,510l102.69,59.29,112.4,64.89L408,691.67v101.2l-47.9-27.66L213.68,680.68a35.87,35.87,0,0,1-17.93-31V621.16l-129-74.68V714.41A52.68,52.68,0,0,0,93.06,760L308.15,884.21,408,941.86l36.52,21.08a52.66,52.66,0,0,0,52.67,0L532,942.85l106.67-61.59,107.3-62L848.65,760A52.69,52.69,0,0,0,875,714.41V557.64A52.68,52.68,0,0,0,848.66,513L746,453.68,633.57,388.79,557,344.72V493.57l24.62,14.22L728,592.32A35.83,35.83,0,0,1,746,622.9v26.73A35.85,35.85,0,0,1,732,678a37.33,37.33,0,0,1-4,2.67L585.09,763.2,532,793.86v-73.4l91.76-53-91.76-53L408,542.88l-47.9-27.67L213.68,430.68a35.89,35.89,0,0,1-17.93-31.05h0V373.37a35.84,35.84,0,0,1,14-28.39,34.65,34.65,0,0,1,4-2.66L360.1,257.79,408,230.13v74.92l-88.73,51.23L408,407.52V514l124,71.61V229.14l53.09,30.66L728,342.32A35.85,35.85,0,0,1,746,373.37v28.46Z"/></svg>