<svg id="Layer_1" data-name="Layer 1" xmlns="http://www.w3.org/2000/svg" viewBox="0 0 1280 1024"><defs><style>.cls-1{fill:#222;}</style></defs><title>Slice-Artboard 1</title><path class="cls-1" d="M511.05,856.13a182.16,182.16,0,0,0-22.22-13.51,5,5,0,0,1-.58-.34,6,6,0,0,0-.58-.33c-1.33-.66-2.63-1.32-3.9-2s-2.51-1.27-3.73-1.82q-9.62-4.82-15-8.21a31.61,31.61,0,0,1-9-8.37,19.66,19.66,0,0,1-3.56-11.78V793.7q0-8.28,4.89-13T471.25,776q8.46,0,13.18,5.22t4.73,14.51v13.76l40.95-.49v-13.6q0-18.74-7-32.08A47,47,0,0,0,502.92,743q-13.26-7-31.67-7-18.9,0-32.33,7a47.5,47.5,0,0,0-20.48,20.15q-7.05,13.18-7,31.59v12.43q0,17.75,6.3,29.85a58.5,58.5,0,0,0,15.75,19.48,139.68,139.68,0,0,0,22.88,14.18l2.16,1c.44.22.85.44,1.24.66s.8.45,1.24.67q10.11,5,16,8.54a34.19,34.19,0,0,1,9.62,8.45,18.48,18.48,0,0,1,3.73,11.53v21q0,9-4.89,14.1t-13.85,5.14q-9.12,0-14.25-5.22t-5.15-14.35V909.27l-40.95.33v12.93q0,18.75,7.21,32.09A48.42,48.42,0,0,0,439.25,975q13.59,7.05,32.5,7,18.74,0,32.17-7a47.64,47.64,0,0,0,20.47-20.39q7.05-13.35,7.05-32.09V902.47q0-17.57-6-28.85T511.05,856.13Z"/><path class="cls-1" d="M585,936.05q-2.91-3.07-2.91-8.71V738.49H541V934q0,21.72,11.11,33.66t31,11.93h15.09V939.12H593Q587.89,939.12,585,936.05Z"/><rect class="cls-1" x="616.08" y="807.46" width="41.12" height="172.11"/><rect class="cls-1" x="616.08" y="738.49" width="41.12" height="40.79"/><path class="cls-1" d="M735.86,930.33q0,7.13-3.4,11t-9.87,3.9q-6.3,0-9.78-3.65t-3.48-10.28V857.7q0-7.62,3.48-12t9.78-4.39q6.46,0,9.95,4.48t3.48,12.6v11.27h40.46V854.72q0-15.91-6.38-27.19a41.38,41.38,0,0,0-18.66-17.16q-12.27-5.89-29.35-5.89t-29.18,5.89a41.67,41.67,0,0,0-18.49,17.07Q668,838.63,668,854.39v80.25q0,14.93,6.38,25.62a40.67,40.67,0,0,0,18.49,16.25q12.11,5.55,29.18,5.55,17.25,0,29.52-5.72a41.71,41.71,0,0,0,18.73-16.5q6.46-10.77,6.47-25.86v-13.6l-40.95-.5Z"/><path class="cls-1" d="M855.47,927.18v6q0,5.8-3.49,9T842,945.25q-7,0-10.7-3.81t-3.73-11V907.94h67V859.2q0-17.41-6.39-29.68a43.18,43.18,0,0,0-18.4-18.66q-12-6.37-29.1-6.38-16.76,0-28.6,6.55A43.5,43.5,0,0,0,794,830.18q-6.3,12.6-6.3,30.34v68.65q0,16.74,6.47,28.6a43,43,0,0,0,18.65,18.07Q825,982.07,842,982.06q25.2,0,39.13-13t13.92-36.72v-4.81ZM831,845.68q3.39-4.56,9.7-4.56,6.63,0,10.36,4.31t3.73,11.94v20.56H827.61v-19.4Q827.61,850.25,831,845.68Z"/><path class="cls-1" d="M926.53,339.79V226.09a35.67,35.67,0,0,0-17.83-30.9l-142.2-82.1-72.24-41.7L670.69,57.78a35.68,35.68,0,0,0-35.67,0L610.29,72.06l-67.62,39L466.55,155,397,195.19a35.69,35.69,0,0,0-17.84,30.89V331.61A35.66,35.66,0,0,0,397,362.5l69.54,40.16,76.12,43.94,67.62,38.92v68.53l-32.44-18.73L478.7,478.07a24.27,24.27,0,0,1-12.15-21V437.76l-87.38-50.57V500.91A35.68,35.68,0,0,0,397,531.81L542.67,615.9l67.62,39L635,669.22a35.68,35.68,0,0,0,35.67,0l23.57-13.61,72.24-41.7,72.66-42,69.54-40.14a35.67,35.67,0,0,0,17.83-30.9V394.75a35.64,35.64,0,0,0-17.82-30.25l-69.56-40.16-76.1-43.94-51.86-29.84v100.8L727.87,361,827,418.23a24.28,24.28,0,0,1,12.13,20.71V457a24.28,24.28,0,0,1-9.44,19.22,24,24,0,0,1-2.7,1.81L730.21,534l-36,20.75V505l62.14-35.88-62.14-35.89-84-48.49L577.85,366,478.7,308.77a24.31,24.31,0,0,1-12.15-21h0V270A24.27,24.27,0,0,1,476,250.73a23.78,23.78,0,0,1,2.69-1.8l99.15-57.25L610.29,173v50.74L550.2,258.38l60.09,34.7V365.2l84,48.49V172.29l36,20.75L827,248.93a24.27,24.27,0,0,1,12.14,21v19.27Z"/><rect class="cls-1" x="141" y="877" width="238" height="14"/><rect class="cls-1" x="927" y="877" width="238" height="14"/></svg>